HIERARCHY
ROOT Hips
{
	OFFSET 0.000000 0.000000 0.000000 
	CHANNELS 6 Xposition Yposition Zposition Zrotation Yrotation Xrotation
	JOINT LeftUpLeg
	{
		OFFSET 1.363060 -1.794630 0.839290 
		CHANNELS 3 Zrotation Yrotation Xrotation
		JOINT LeftLeg
		{
			OFFSET 2.448110 -6.726130 0.000000 
			CHANNELS 3 Zrotation Yrotation Xrotation
			JOINT LeftFoot
			{
				OFFSET 2.562200 -7.039590 0.000000 
				CHANNELS 3 Zrotation Yrotation Xrotation
				JOINT LeftToeBase
				{
					OFFSET 0.157640 -0.433110 2.322550 
					CHANNELS 3 Zrotation Yrotation Xrotation
					End Site
					{
						OFFSET 0.000000 0.000000 0.000000 
					}
				}
			}
		}
	}
	JOINT RightUpLeg
	{
		OFFSET -1.305520 -1.794630 0.839290 
		CHANNELS 3 Zrotation Yrotation Xrotation
		JOINT RightLeg
		{
			OFFSET -2.542530 -6.985550 0.000000 
			CHANNELS 3 Zrotation Yrotation Xrotation
			JOINT RightFoot
			{
				OFFSET -2.568260 -7.056230 0.000000 
				CHANNELS 3 Zrotation Yrotation Xrotation
				JOINT RightToeBase
				{
					OFFSET -0.164730 -0.452590 2.363150 
					CHANNELS 3 Zrotation Yrotation Xrotation
					End Site
					{
						OFFSET 0.000000 0.000000 0.000000 
					}
				}
			}
		}
	}
	JOINT Spine
	{
		OFFSET 0.028270 2.035590 -0.193380 
		CHANNELS 3 Zrotation Yrotation Xrotation
		JOINT Spine1
		{
			OFFSET 0.056720 2.048850 -0.042750 
			CHANNELS 3 Zrotation Yrotation Xrotation
			JOINT Neck1
			{
				OFFSET -0.054170 1.746240 0.172020 
				CHANNELS 3 Zrotation Yrotation Xrotation
				JOINT Head
				{
					OFFSET 0.104070 1.761360 -0.123970 
					CHANNELS 3 Zrotation Yrotation Xrotation
					End Site
					{
						OFFSET 0.000000 0.000000 0.000000 
					}
				}
			}
			JOINT LeftArm
			{
				OFFSET 3.362410 1.200890 -0.311210 
				CHANNELS 3 Zrotation Yrotation Xrotation
				JOINT LeftForeArm
				{
					OFFSET 4.983000 -0.000000 -0.000000 
					CHANNELS 3 Zrotation Yrotation Xrotation
					JOINT LeftHand
					{
						OFFSET 3.483560 -0.000000 -0.000000 
						CHANNELS 3 Zrotation Yrotation Xrotation
						JOINT LeftHandIndex1
						{
							OFFSET 0.715260 -0.000000 -0.000000 
							CHANNELS 3 Zrotation Yrotation Xrotation
							End Site
							{
								OFFSET 0.000000 0.000000 0.000000 
							}
						}
					}
				}
			}
			JOINT RightArm
			{
				OFFSET -3.136600 1.374050 -0.404650 
				CHANNELS 3 Zrotation Yrotation Xrotation
				JOINT RightForeArm
				{
					OFFSET -5.241900 -0.000000 -0.000000 
					CHANNELS 3 Zrotation Yrotation Xrotation
					JOINT RightHand
					{
						OFFSET -3.444170 -0.000000 -0.000000 
						CHANNELS 3 Zrotation Yrotation Xrotation
						JOINT RightHandIndex1
						{
							OFFSET -0.622530 -0.000000 -0.000000 
							CHANNELS 3 Zrotation Yrotation Xrotation
							End Site
							{
								OFFSET 0.000000 0.000000 0.000000 
							}
						}
					}
				}
			}
		}
	}
}
MOTION
Frames: 16
Frame Time: 0.041667
0.839698 18.354975 9.982347 -10.889623 5.056764 16.063059 -15.974631 -47.803506 18.304523 -3.610330 -2.225382 -3.826572 -15.700350 45.570035 -25.873531 0.068800 1.692200 4.655600 24.287724 26.487070 0.095471 3.807771 -0.664456 2.253080 9.827148 -30.094338 -7.621304 -0.018700 -0.883700 2.429000 21.764971 7.598220 -31.046562 -11.359157 -1.584398 -9.029210 24.155408 -22.371969 20.033094 4.896000 -9.575900 7.226200 -88.558264 17.774921 7.839114 14.210210 -16.531589 -2.819629 -1.146176 0.448299 2.536030 -7.125000 0.000000 0.000000 82.045935 -16.772085 -4.683188 -13.829664 18.685012 -2.934496 0.893959 1.746738 37.009461 7.125000 0.000000 0.000000 
0.840646 18.353394 9.984350 -10.923581 5.087342 15.932314 -16.291845 -47.970053 18.596908 -3.626886 -2.239403 -3.756016 -15.644440 45.509016 -26.207618 0.078100 1.803100 4.961900 24.122546 26.317444 0.009244 3.803336 -0.669819 2.258263 9.778432 -29.948941 -7.464212 -0.017300 -0.850100 2.336300 23.415543 7.589178 -29.813250 -11.564179 -1.801428 -9.295546 24.160977 -22.258651 20.447907 4.934100 -9.483000 7.449500 -89.112891 17.334634 6.944427 14.243121 -16.540060 -2.824818 -1.143204 0.465785 2.573849 -7.125000 0.000000 0.000000 81.386704 -16.322952 -4.101399 -13.729333 18.602255 -2.902846 0.901269 1.738060 37.077414 7.125000 0.000000 0.000000 
0.841068 18.353289 9.985193 -11.131886 5.169119 15.805805 -16.227112 -47.998260 18.650487 -3.633535 -2.270826 -3.745560 -15.658094 45.502439 -26.250188 0.073900 1.753700 4.825400 24.183774 26.284511 -0.022516 3.800982 -0.676414 2.271072 9.755871 -29.895750 -7.455825 -0.018800 -0.885600 2.434100 25.210821 7.587179 -28.526193 -11.828755 -2.036998 -9.646784 24.059084 -22.111424 20.873329 4.960300 -9.379400 7.677900 -89.716792 16.915892 5.953954 14.294481 -16.577839 -2.835679 -1.138231 0.463968 2.656108 -7.125000 0.000000 0.000000 80.757567 -15.907002 -3.461888 -13.650659 18.551273 -2.882402 0.904163 1.738893 37.082709 7.125000 0.000000 0.000000 
0.839592 18.352024 9.986564 -11.331627 5.234422 15.657467 -16.168723 -48.002459 18.712851 -3.640230 -2.304514 -3.742288 -15.681661 45.511088 -26.279111 0.070000 1.707200 4.697200 24.277496 26.406137 0.058854 3.802896 -0.667491 2.247496 9.788893 -29.991643 -7.554326 -0.020300 -0.920000 2.528700 26.994988 7.517930 -27.185384 -12.033475 -2.277241 -10.024714 23.898034 -21.923677 21.239113 4.978700 -9.265400 7.884600 -90.351015 16.458063 4.822915 14.337091 -16.602647 -2.841158 -1.135097 0.458989 2.830749 -7.125000 0.000000 0.000000 80.129962 -15.485511 -2.787940 -13.560321 18.485904 -2.856298 0.907534 1.730607 37.052584 7.125000 0.000000 0.000000 
0.832003 18.354659 9.991307 -11.003085 5.069225 15.663562 -16.839802 -48.341116 19.060781 -3.660121 -2.325231 -3.717767 -15.688999 45.636607 -26.905088 0.085900 1.890000 5.201700 23.801700 27.124962 0.344344 3.818238 -0.620360 2.110004 10.002879 -30.487459 -7.988262 -0.044000 -1.354000 3.723500 28.182003 7.300953 -26.148383 -11.825980 -2.444790 -10.213295 23.684646 -21.760281 21.605267 4.953400 -9.161100 8.076000 -90.868143 15.955558 3.662755 14.344370 -16.569263 -2.832612 -1.117237 0.489233 3.057266 -7.125000 0.000000 0.000000 79.402192 -14.925708 -1.940980 -13.360406 18.287139 -2.800268 0.913801 1.742047 36.321974 7.125000 0.000000 0.000000 
0.822832 18.365200 10.017133 -11.206901 5.266156 15.836866 -16.582409 -48.801396 18.840084 -3.654917 -2.383034 -3.787859 -15.817133 45.829673 -27.115191 0.087900 1.912300 5.263300 23.793674 28.129639 0.660336 3.846864 -0.499405 1.801993 10.299847 -31.256504 -8.816904 -0.106100 -2.100800 5.784200 31.305652 6.810006 -23.682678 -11.887786 -2.928584 -10.434686 23.260266 -21.366004 22.167061 4.945700 -8.929100 8.477700 -92.011365 14.996756 1.752132 14.385260 -16.557499 -2.836946 -1.093621 0.558113 3.428695 -7.125000 0.000000 0.000000 78.013241 -13.797577 -0.183279 -13.041405 17.971210 -2.724955 0.923381 1.785130 34.851596 7.125000 0.000000 0.000000 
0.817983 18.369205 10.026936 -11.096690 5.250726 16.055937 -16.544635 -48.964194 18.656637 -3.647861 -2.377443 -3.810051 -15.877513 45.943263 -27.167236 0.089100 1.925500 5.299800 23.676709 28.727587 0.838147 3.861863 -0.445167 1.658714 10.461025 -31.660537 -9.297328 -0.152700 -2.517800 6.939100 31.382359 6.747927 -23.764526 -11.774716 -2.967521 -10.223288 23.270944 -21.311700 22.165243 4.957800 -8.898300 8.494000 -92.112876 14.929583 1.310755 14.405199 -16.571074 -2.846757 -1.084909 0.597601 3.504726 -7.125000 0.000000 0.000000 77.853515 -13.646849 0.148298 -12.981074 17.900295 -2.716483 0.921945 1.813835 34.181095 7.125000 0.000000 0.000000 
0.817772 18.368573 10.027779 -11.100246 5.240790 16.036134 -16.581527 -48.969899 18.699075 -3.649165 -2.377517 -3.803947 -15.883955 45.956196 -27.187120 0.092400 1.960400 5.396300 23.687250 28.757120 0.879149 3.864221 -0.436368 1.644447 10.458441 -31.650859 -9.371843 -0.161000 -2.585100 7.125600 31.472024 6.717730 -23.658281 -11.782925 -2.984607 -10.255150 23.295290 -21.298107 22.181700 4.967700 -8.888100 8.509500 -92.155681 14.900783 1.153401 14.441212 -16.619427 -2.862250 -1.076837 0.604378 3.455419 -7.125000 0.000000 0.000000 77.829361 -13.618753 0.211096 -13.011781 17.943454 -2.729188 0.917976 1.821760 34.212089 7.125000 0.000000 0.000000 
0.817245 18.368573 10.028939 -11.059555 5.217949 16.014745 -16.724412 -49.036793 18.834184 -3.653871 -2.377694 -3.797316 -15.876899 45.976073 -27.344092 0.096400 2.002500 5.512500 23.674062 28.834626 0.948277 3.865734 -0.440547 1.660399 10.474367 -31.684717 -9.468250 -0.164800 -2.615200 7.209100 31.464217 6.713368 -23.646399 -11.767191 -2.980361 -10.261151 23.306129 -21.300323 22.175745 4.973200 -8.890800 8.509500 -92.171245 14.927372 1.179470 14.472618 -16.659543 -2.874728 -1.081078 0.598225 3.386259 -7.125000 0.000000 0.000000 77.797718 -13.643358 0.319186 -13.031274 17.974789 -2.738398 0.914818 1.828496 34.119475 7.125000 0.000000 0.000000 
0.816191 18.368573 10.029887 -11.015345 5.179805 16.025210 -16.710682 -48.932886 18.771131 -3.652153 -2.366391 -3.786365 -15.861942 45.940854 -27.233356 0.088700 1.921100 5.287700 23.712171 28.974174 1.036037 3.865128 -0.457918 1.709750 10.507511 -31.768434 -9.564882 -0.159300 -2.571400 7.087600 31.026813 6.799101 -23.955395 -11.762745 -2.896487 -10.129934 23.421451 -21.409296 22.098178 4.974700 -8.941600 8.468300 -91.940985 14.995120 1.516788 14.448276 -16.634783 -2.867620 -1.094911 0.597280 3.302178 -7.125000 0.000000 0.000000 77.952063 -13.727446 0.125744 -13.032291 17.959780 -2.734081 0.914734 1.823019 33.997398 7.125000 0.000000 0.000000 
0.814821 18.368678 10.031258 -11.004951 5.139666 16.067157 -16.586065 -48.811668 18.656985 -3.646753 -2.355252 -3.803111 -15.864712 45.928383 -27.071200 0.085600 1.886800 5.192900 23.789375 28.944325 1.050429 3.863175 -0.455637 1.707594 10.503130 -31.768324 -9.479759 -0.149600 -2.492400 6.868500 30.190060 6.965604 -24.548270 -11.781747 -2.738420 -9.879718 23.602398 -21.620788 21.956627 4.962700 -9.040300 8.391900 -91.497223 15.114577 2.111755 14.390620 -16.576207 -2.850376 -1.105257 0.601959 3.219013 -7.125000 0.000000 0.000000 78.313867 -13.874350 -0.394898 -13.049629 17.943941 -2.730716 0.913809 1.815730 33.918463 7.125000 0.000000 0.000000 
0.813978 18.368468 10.032839 -11.037839 5.133098 16.082989 -16.525391 -48.811527 18.670080 -3.644633 -2.356480 -3.829942 -15.884514 45.962716 -27.061043 0.092700 1.963500 5.404800 23.829726 28.731371 0.974903 3.860773 -0.438167 1.661731 10.457369 -31.664561 -9.250473 -0.141200 -2.422000 6.673400 29.814869 7.045604 -24.812761 -11.808302 -2.665925 -9.755565 23.650694 -21.699122 21.875082 4.947200 -9.078900 8.345900 -91.286098 15.182866 2.431886 14.371995 -16.560495 -2.845227 -1.110381 0.597758 3.248769 -7.125000 0.000000 0.000000 78.505948 -13.942196 -0.694493 -13.053787 17.929266 -2.727918 0.912988 1.814814 33.959749 7.125000 0.000000 0.000000 
0.813661 18.368362 10.033998 -11.032950 5.128367 16.079649 -16.578657 -48.836628 18.730001 -3.645535 -2.358142 -3.833305 -15.897628 45.989794 -27.087127 0.093400 1.971500 5.426800 23.797146 28.611512 0.926793 3.860743 -0.426541 1.632598 10.427546 -31.586167 -9.162424 -0.142100 -2.429400 6.694000 29.817903 7.044976 -24.793372 -11.810568 -2.663461 -9.741444 23.547146 -21.676362 21.900578 4.914800 -9.070300 8.341600 -91.271765 15.171555 2.487771 14.371946 -16.559089 -2.844158 -1.108876 0.591423 3.337050 -7.125000 0.000000 0.000000 78.520882 -13.923621 -0.779366 -13.037857 17.906509 -2.722278 0.913889 1.816295 34.065281 7.125000 0.000000 0.000000 
0.813240 18.368257 10.034631 -11.021073 5.116226 16.089082 -16.582995 -48.836464 18.720304 -3.647739 -2.359997 -3.832736 -15.857632 45.938690 -27.161764 0.095500 1.992900 5.485900 23.778431 28.634721 0.934766 3.862467 -0.417362 1.612715 10.428579 -31.585022 -9.198996 -0.147000 -2.470800 6.808800 29.817853 7.038386 -24.754514 -11.810789 -2.660411 -9.724341 23.637915 -21.712452 21.921589 4.936900 -9.079800 8.368100 -91.250561 15.141809 2.563193 14.364708 -16.547590 -2.840425 -1.113090 0.586381 3.328599 -7.125000 0.000000 0.000000 78.534398 -13.904859 -0.827870 -13.040214 17.905970 -2.723078 0.914829 1.817883 34.074670 7.125000 0.000000 0.000000 
0.812291 18.368046 10.035474 -11.066993 5.122307 16.081773 -16.539000 -48.869826 18.737777 -3.652836 -2.363966 -3.830805 -15.767240 45.826025 -27.373374 0.106500 2.104000 5.793300 23.831739 28.630010 0.940373 3.861307 -0.413871 1.600666 10.439316 -31.623840 -9.140643 -0.138900 -2.401700 6.617200 29.902610 7.033651 -24.670143 -11.834651 -2.667916 -9.722364 23.605932 -21.704136 21.900883 4.924600 -9.076900 8.362900 -91.250499 15.150168 2.687910 14.388056 -16.577515 -2.849321 -1.119566 0.575115 3.217636 -7.125000 0.000000 0.000000 78.554966 -13.889340 -0.856381 -13.046743 17.912723 -2.724631 0.913864 1.816282 34.048228 7.125000 0.000000 0.000000 
0.810815 18.367941 10.036633 -11.119340 5.131131 16.053809 -16.556226 -48.957166 18.851905 -3.655666 -2.368705 -3.839917 -15.761273 45.840511 -27.524317 0.114700 2.183600 6.013300 23.908152 28.622993 0.971586 3.860412 -0.414022 1.602015 10.443543 -31.645609 -9.110895 -0.132900 -2.350100 6.474100 29.997149 7.031890 -24.587054 -11.857993 -2.676017 -9.735157 23.549760 -21.691739 21.869097 4.907900 -9.075700 8.350000 -91.255341 15.178587 2.812834 14.407705 -16.605036 -2.858485 -1.114582 0.574735 3.143278 -7.125000 0.000000 0.000000 78.598029 -13.901926 -0.927571 -13.070414 17.942610 -2.732237 0.909957 1.817051 34.076343 7.125000 0.000000 0.000000 
